<svg xmlns:dc="http://purl.org/dc/elements/1.1/" xmlns:cc="http://creativecommons.org/ns#" xmlns:rdf="http://www.w3.org/1999/02/22-rdf-syntax-ns#" xmlns:svg="http://www.w3.org/2000/svg" xmlns="http://www.w3.org/2000/svg" xmlns:xlink="http://www.w3.org/1999/xlink" xmlns:sodipodi="http://sodipodi.sourceforge.net/DTD/sodipodi-0.dtd" xmlns:inkscape="http://www.inkscape.org/namespaces/inkscape" height="253.03654" width="251.8455" version="1.0" id="svg2" sodipodi:version="0.32" inkscape:version="0.47 r22583" sodipodi:docname="Sun blue icon.svg" inkscape:output_extension="org.inkscape.output.svg.inkscape" style="&#10;    background: black;&#10;">
  <metadata id="metadata49">
    <rdf:RDF>
      <cc:Work rdf:about="">
        <dc:format>image/svg+xml</dc:format>
        <dc:type rdf:resource="http://purl.org/dc/dcmitype/StillImage"/>
        <dc:title/>
        <dc:date>03-AUG-2006</dc:date>
        <dc:creator>
          <cc:Agent>
            <dc:title>Jérôme BLUM (wagner51)</dc:title>
          </cc:Agent>
        </dc:creator>
        <cc:license rdf:resource="http://web.resource.org/cc/PublicDomain"/>
        <dc:language>fr</dc:language>
        <dc:subject>
          <rdf:Bag>
            <rdf:li>gabarit modèle blason projet wikipédia</rdf:li>
          </rdf:Bag>
        </dc:subject>
      </cc:Work>
      <cc:License rdf:about="http://web.resource.org/cc/PublicDomain">
        <cc:permits rdf:resource="http://web.resource.org/cc/Reproduction"/>
        <cc:permits rdf:resource="http://web.resource.org/cc/Distribution"/>
        <cc:permits rdf:resource="http://web.resource.org/cc/DerivativeWorks"/>
      </cc:License>
    </rdf:RDF>
  </metadata>
  <sodipodi:namedview inkscape:window-height="706" inkscape:window-width="1366" inkscape:pageshadow="2" inkscape:pageopacity="0.0" guidetolerance="10.0" gridtolerance="10.0" objecttolerance="10.0" borderopacity="1.0" bordercolor="#666666" pagecolor="#ffffff" id="base" showgrid="true" height="660px" inkscape:zoom="1.8771992" inkscape:cx="125.92275" inkscape:cy="126.51827" inkscape:window-x="-8" inkscape:window-y="-8" inkscape:current-layer="layer2" inkscape:window-maximized="1"/>
  <desc id="desc4">Flag of Canton of Valais (Wallis)</desc>
  <defs id="defs6">
    <inkscape:perspective sodipodi:type="inkscape:persp3d" inkscape:vp_x="0 : 330 : 1" inkscape:vp_y="0 : 1000 : 0" inkscape:vp_z="600 : 330 : 1" inkscape:persp3d-origin="300 : 220 : 1" id="perspective97"/>
    <linearGradient id="linearGradient2893">
      <stop style="stop-color:white;stop-opacity:0.3137255;" offset="0" id="stop2895"/>
      <stop id="stop2897" offset="0.19" style="stop-color:white;stop-opacity:0.25098041;"/>
      <stop style="stop-color:#6b6b6b;stop-opacity:0.1254902;" offset="0.60000002" id="stop2901"/>
      <stop style="stop-color:black;stop-opacity:0.1254902;" offset="1" id="stop2899"/>
    </linearGradient>
    <radialGradient inkscape:collect="always" xlink:href="#linearGradient2893" id="radialGradient2883" cx="203.19754" cy="218.01039" fx="203.19754" fy="218.01039" r="300" gradientTransform="matrix(1.360018,0,0,1.355087,-79.5275,-87.64524)" gradientUnits="userSpaceOnUse"/>
    <linearGradient id="linearGradient2955">
      <stop style="stop-color:white;stop-opacity:0;" offset="0" id="stop2965"/>
      <stop style="stop-color:black;stop-opacity:0.64583331;" offset="1" id="stop2959"/>
    </linearGradient>
    <radialGradient inkscape:collect="always" xlink:href="#linearGradient2955" id="radialGradient2961" cx="225.52438" cy="218.90099" fx="225.52438" fy="218.90099" r="300" gradientTransform="matrix(-4.167939e-4,2.182867,-1.884232,-3.599562e-4,615.5972,-289.1214)" gradientUnits="userSpaceOnUse"/>
    <polygon id="star" transform="scale(53,53)" points="-0.95105652,-0.30901699 0.95105652,-0.30901699 -0.58778525,0.80901699 0,-1 0,-1 0.58778525,0.80901699 "/>
    <clipPath id="clip">
      <path d="m 0,-200 0,800 300,0 0,-800 -300,0 z" id="path10"/>
    </clipPath>
    <radialGradient inkscape:collect="always" xlink:href="#linearGradient2955" id="radialGradient1911" gradientUnits="userSpaceOnUse" gradientTransform="matrix(-4.167939e-4,2.182867,-1.884232,-3.599562e-4,1395.597,-309.1214)" cx="225.52438" cy="218.90099" fx="225.52438" fy="218.90099" r="300"/>
    <radialGradient inkscape:collect="always" xlink:href="#linearGradient2955" id="radialGradient2928" cx="-483.50824" cy="153.9283" fx="-483.50824" fy="153.9283" r="300.00003" gradientTransform="matrix(0,2.342476,-2.291353,0,562.9126,1323.77)" gradientUnits="userSpaceOnUse"/>
    <radialGradient inkscape:collect="always" xlink:href="#linearGradient2893" id="radialGradient11919" gradientUnits="userSpaceOnUse" gradientTransform="matrix(1.551284,0,0,1.350335,-727.0943,-260.0635)" cx="285.18573" cy="200.44757" fx="285.18573" fy="200.44757" r="300"/>
  </defs>
  <g inkscape:groupmode="layer" id="layer1" inkscape:label="Fond écu" transform="translate(-83.29063,-39.200027)"/>
  <g inkscape:groupmode="layer" id="layer5" inkscape:label="Pièce" transform="translate(-83.29063,-39.200027)"/>
  <g inkscape:groupmode="layer" id="layer2" inkscape:label="Meubles" style="display:inline" transform="translate(-83.29063,-39.200027)">
    <path style="fill:#ffffff;fill-opacity:1;stroke:none" d="m 219.27657,254.64739 5.99763,4.28856 c 8.59824,5.99673 13.32651,14.33182 12.85823,22.93349 l -0.31763,7.10395 2.82249,-6.98937 c 3.08756,-7.3144 2.66249,-18.39006 -0.98443,-26.59303 l -2.12766,-4.78312 6.75667,2.94516 c 9.65506,4.07694 16.01236,11.24402 17.34011,19.758 l 1.16426,7.01509 1.30906,-7.42664 c 1.50057,-7.79844 -1.21331,-18.53971 -6.48575,-25.80383 l -3.07472,-4.23829 7.22144,1.47434 c 10.29032,1.97826 17.99639,7.66632 21.0641,15.71848 l 2.59594,6.6199 -0.26275,-7.53771 c -0.15064,-7.93991 -5.03773,-17.88263 -11.70215,-23.89105 l -3.88748,-3.50521 7.36975,-0.0596 c 10.476,-0.20694 19.19568,3.7519 23.8679,10.99148 l 3.912,5.93242 -1.82054,-7.31673 c -1.79602,-7.7318 -8.64028,-16.44103 -16.40706,-20.93069 l -4.53092,-2.62014 7.19692,-1.59125 c 10.20391,-2.3863 19.55535,-0.3262 25.62771,5.78043 l 5.05875,4.9889 -3.30126,-6.77775 c -3.36199,-7.19046 -11.86564,-14.28622 -20.39498,-17.06069 l -4.97583,-1.61581 6.70879,-3.05624 c 9.48457,-4.45692 19.05906,-4.3891 26.26765,0.31802 l 5.98595,3.82907 -4.63601,-5.94412 C 320.70959,190.26879 310.91907,185.101 301.9997,184.16332 l -5.20121,-0.54601 5.92756,-4.38676 c 8.35184,-6.33229 17.73131,-8.26261 25.75967,-5.15609 l 6.65041,2.49737 -5.76875,-4.84743 c -5.99412,-5.19935 -16.64412,-8.21818 -25.56349,-7.27815 l -5.20121,0.546 4.88592,-5.52438 c 6.85476,-7.93289 15.62933,-11.77132 24.12714,-10.40337 l 7.02292,1.05694 -6.6504,-3.53912 c -6.94235,-3.83842 -17.98588,-4.57383 -26.51522,-1.79937 l -4.97584,1.61698 3.63175,-6.4188 c 5.05758,-9.18743 12.84305,-14.76793 21.43895,-15.2017 l 7.08948,-0.42558 -7.24012,-2.07764 c -7.58812,-2.30913 -18.5429,-0.7284 -26.30969,3.75892 l -4.53092,2.61897 2.22108,-7.03614 c 3.03969,-10.03859 9.49508,-17.11681 17.81422,-19.33007 l 6.84659,-1.89291 -7.51338,-0.524961 c -7.90225,-0.680463 -18.2895,3.143931 -24.95392,9.152351 l -3.88748,3.50521 0.71117,-7.34363 c 0.8875,-10.454821 5.73254,-18.720934 13.41058,-22.618985 l 6.30358,-3.274877 -7.4585,1.048756 c -7.87072,0.979774 -17.23617,6.88414 -22.50745,14.148264 l -3.07472,4.238283 -0.82911,-7.331937 c -1.30206,-10.408053 1.71895,-19.506622 8.41957,-24.914086 l 5.48498,-4.516548 -7.07781,2.578045 c -7.4947,2.596752 -15.42848,10.321533 -19.07657,18.52451 l -2.12766,4.786629 -2.33436,-6.999889 c -3.43556,-9.909982 -2.36822,-19.437641 3.06304,-26.121851 l 4.42816,-5.559435 -6.38766,3.993901 c -6.79171,4.100319 -12.94932,13.307622 -14.81424,22.090513 l -1.08719,5.124522 -3.73684,-6.359177 c -5.41841,-8.981652 -6.35262,-18.519834 -2.42894,-26.190856 l 3.17631,-6.359131 -5.41842,5.235547 c -5.7921,5.426195 -9.90262,15.71616 -9.90262,24.694304 l 0,5.236764 -4.97584,-5.44254 c -7.16305,-7.653461 -10.05794,-16.792952 -7.8135,-25.111655 l 1.78434,-6.882994 -4.21212,6.252806 c -4.53909,6.509978 -6.42269,17.430133 -4.55777,26.215362 l 1.08602,5.122183 -5.99646,-4.288557 C 184.55549,66.50506 179.82722,58.169965 180.29549,49.564779 l 0.31647,-7.103935 -2.82248,6.992897 c -3.0864,7.314376 -2.66134,18.386524 0.98442,26.5895 l 2.12766,4.786629 -6.75667,-2.946337 C 164.48983,73.807767 158.13253,66.639515 156.80478,58.126706 l -1.16426,-7.015089 -1.30789,7.425471 c -1.50057,7.796102 1.21214,18.540879 6.48575,25.805003 l 3.07355,4.235944 -7.22027,-1.475507 c -10.29033,-1.977085 -17.99639,-7.663984 -21.0641,-15.717305 l -2.59594,-6.618736 0.26275,7.536543 c 0.15064,7.939911 5.03773,17.88263 11.70215,23.889884 l 3.88748,3.505205 -7.36975,0.05963 c -10.476,0.208114 -19.19568,-3.751903 -23.8679,-10.987967 l -3.91317,-5.934765 1.82171,7.315568 c 1.79602,7.735304 8.64027,16.444535 16.40706,20.934195 l 4.52975,2.61896 -7.19575,1.59126 c -10.20391,2.38396 -19.55535,0.32737 -25.62772,-5.77926 l -5.059911,-4.99007 3.301261,6.77774 c 3.36316,7.19164 11.86681,14.28389 20.39614,17.05836 l 4.97584,1.61932 -6.7088,3.05507 c -9.48573,4.45809 -19.06022,4.3891 -26.268813,-0.31919 l -5.985951,-3.8279 4.636017,5.94178 c 4.783155,6.33463 14.573677,11.50241 23.493047,12.44126 l 5.20238,0.54835 -5.92756,4.38443 c -8.35301,6.33462 -17.732475,8.26143 -25.760842,5.15609 l -6.650408,-2.49621 5.768747,4.84626 c 5.994125,5.20169 16.644123,8.21818 25.563493,7.27932 l 5.20238,-0.546 -4.88709,5.52204 c -6.85476,7.93524 -15.629331,11.77132 -24.127139,10.40572 l -7.022924,-1.05928 6.650408,3.54145 c 6.943515,3.83959 17.987045,4.57384 26.516385,1.79937 l 4.97583,-1.61815 -3.63291,6.42114 c -5.05757,9.18626 -12.84305,14.76793 -21.438947,15.19936 l -7.089486,0.42441 7.240127,2.07998 c 7.588116,2.30913 18.542896,0.7284 26.309686,-3.76009 l 4.53092,-2.62014 -2.21991,7.03614 c -3.03969,10.04093 -9.49508,17.12032 -17.81422,19.33241 l -6.84659,1.89291 7.51338,0.52613 c 7.90225,0.67812 18.2895,-3.14744 24.95392,-9.15586 l 3.88748,-3.50521 -0.71117,7.34714 c -0.8875,10.45131 -5.73254,18.71976 -13.41058,22.61547 l -6.30358,3.27722 7.45849,-1.04759 c 7.87072,-0.97977 17.23618,-6.88764 22.50746,-14.15177 l 3.07472,-4.23594 0.83028,7.3331 c 1.30205,10.40806 -1.72012,19.50312 -8.42074,24.91292 l -5.48615,4.51655 7.07781,-2.57805 c 7.4947,-2.59558 15.42965,-10.32387 19.07774,-18.52568 l 2.12649,-4.78429 2.33436,6.99638 c 3.43556,9.91349 2.36822,19.43765 -3.06304,26.12419 l -4.42816,5.56063 6.38766,-3.99626 c 6.79171,-4.09915 12.94932,-13.30879 14.81424,-22.09168 l 1.08719,-5.12219 3.73684,6.36035 c 5.41841,8.97931 6.35262,18.51983 2.42894,26.18966 l -3.17631,6.36035 5.41842,-5.2391 c 5.7921,-5.42267 9.90262,-15.71263 9.90262,-24.69194 l 0,-5.23794 4.97584,5.44371 c 7.16305,7.65463 10.05794,16.79295 7.81467,25.11168 l -1.78668,6.88297 4.21212,-6.25278 c 4.53909,-6.51234 6.42269,-17.43016 4.55894,-26.21422 l -1.08718,-5.12218" id="path7619"/>
  </g>
  <g inkscape:groupmode="layer" id="layer3" inkscape:label="Reflet final" transform="translate(-83.29063,-39.200027)"/>
  <g inkscape:groupmode="layer" id="layer4" inkscape:label="Contour final" transform="translate(-83.29063,-39.200027)"/>
</svg>